<?xml version="1.0" standalone="no"?>
<!DOCTYPE svg PUBLIC "-//W3C//DTD SVG 20010904//EN"
 "http://www.w3.org/TR/2001/REC-SVG-20010904/DTD/svg10.dtd">
<svg version="1.0" xmlns="http://www.w3.org/2000/svg"
 width="5157.000000pt" height="3438.000000pt" viewBox="0 0 5157.000000 3438.000000"
 preserveAspectRatio="xMidYMid meet">

<g transform="translate(0.000000,3438.000000) scale(0.100000,-0.100000)"
fill="#000000" stroke="none">
<path d="M25484 32359 c-140 -10 -302 -51 -404 -101 -121 -60 -240 -178 -298
-298 -47 -96 -68 -169 -77 -267 -4 -47 16 -296 63 -807 46 -501 65 -739 58
-742 -6 -2 -442 11 -968 30 -618 21 -979 30 -1020 24 -139 -18 -297 -132 -361
-260 -53 -104 -57 -138 -57 -460 l0 -298 -942 -2 -943 -3 -72 -26 c-96 -35
-191 -105 -245 -178 l-43 -60 -462 0 -463 -1 -327 40 c-181 22 -519 65 -753
96 -396 52 -430 55 -505 45 -132 -18 -270 -96 -344 -195 -30 -40 -42 -47 -130
-76 -103 -33 -314 -131 -396 -183 -85 -53 -227 -161 -297 -226 -255 -236 -464
-601 -539 -941 -51 -237 -49 -22 -49 -4552 l0 -4208 -3990 0 c-3416 0 -3995
-2 -4018 -14 -36 -19 -78 -65 -91 -99 -29 -75 2 -169 68 -214 32 -22 44 -23
192 -23 l159 0 0 -660 0 -660 -159 0 c-147 0 -160 -2 -191 -23 -58 -39 -75
-71 -75 -142 0 -69 15 -99 69 -139 l27 -21 4005 -3 4004 -2 0 -3935 0 -3935
-140 0 c-77 0 -140 -1 -140 -2 0 -2 -7 -66 -15 -143 -8 -77 -15 -152 -15 -167
l0 -28 155 0 155 0 0 -995 c0 -1078 -4 -1007 52 -986 136 52 241 426 292 1041
19 227 25 359 36 790 9 369 22 494 61 625 66 218 173 290 339 226 163 -62 427
-307 577 -535 105 -159 178 -349 219 -571 26 -141 27 -530 1 -695 -73 -467
-237 -911 -502 -1355 -179 -300 -316 -595 -378 -812 -51 -176 -60 -285 -29
-323 17 -21 20 -22 49 -7 16 9 44 32 60 51 81 91 328 474 498 771 98 171 304
576 364 715 l32 75 -63 10745 c-35 5910 -60 10774 -56 10810 13 102 72 213
156 291 79 75 155 115 261 136 86 18 49 21 601 -51 426 -55 919 -116 1275
-156 360 -40 332 -34 327 -68 -6 -44 16 -141 47 -207 36 -77 108 -147 191
-188 l65 -32 2710 -6 c2359 -4 2747 -7 2995 -22 157 -9 458 -23 670 -32 2277
-90 4350 -71 6122 56 326 23 359 21 474 -36 123 -60 227 -192 254 -322 9 -42
118 -2075 460 -8533 44 -828 84 -1583 90 -1678 14 -243 15 -228 -22 -241 -49
-17 -96 -58 -120 -104 -26 -50 -31 -163 -9 -214 l13 -32 62 5 c53 5 68 2 116
-23 32 -16 65 -42 77 -62 32 -47 31 -133 -2 -242 -14 -46 -43 -190 -65 -319
-22 -129 -49 -284 -60 -344 -27 -149 -27 -153 20 -197 33 -31 155 -117 262
-182 l27 -17 -20 -56 c-10 -32 -19 -62 -19 -69 0 -6 21 -21 48 -34 71 -35 166
-106 206 -154 70 -85 77 -112 195 -712 62 -313 176 -894 254 -1290 l142 -719
491 599 c270 330 531 647 578 705 48 58 99 128 113 155 93 182 236 323 403
398 54 24 431 205 480 230 14 7 99 105 189 217 91 113 168 205 172 205 4 0
100 -121 214 -270 525 -684 765 -997 1865 -2428 l604 -787 62 178 c34 97 76
213 93 256 18 44 30 87 28 96 -4 15 -105 158 -632 890 -89 124 -431 601 -760
1060 -614 857 -1089 1518 -1465 2043 -117 163 -216 297 -219 296 -3 0 -370
-538 -816 -1195 -445 -658 -815 -1203 -821 -1212 -16 -22 -15 -40 -95 1553
l-71 1420 36 60 c122 201 103 463 -45 595 l-27 25 -11 230 c-11 222 -45 896
-56 1100 -3 55 -12 233 -20 395 -8 162 -17 338 -20 390 -5 93 -20 389 -30 605
-3 61 -7 142 -10 180 -3 39 -7 131 -10 205 -3 74 -8 167 -10 205 -7 115 -36
683 -50 985 -3 63 -8 147 -10 185 -2 39 -7 129 -10 200 -3 72 -7 168 -10 215
-3 47 -10 177 -15 290 -18 374 -43 854 -55 1070 -3 47 -7 139 -10 205 -3 66
-12 246 -20 400 -15 291 -19 361 -35 685 -31 613 -30 602 -45 880 -2 47 -7
135 -10 195 -3 61 -12 241 -20 400 -8 160 -17 337 -20 395 -39 774 -37 746
-66 891 -38 195 -128 406 -250 589 -86 131 -300 343 -434 432 -175 117 -371
199 -593 250 -97 22 -97 22 -1387 25 l-1291 4 -65 62 c-73 69 -147 116 -239
154 -131 52 -137 53 -962 53 -608 0 -768 3 -768 13 0 6 -7 107 -15 223 -15
234 -27 283 -90 378 -66 99 -165 171 -278 200 -43 11 -282 23 -974 46 -505 18
-919 33 -921 34 -1 2 22 54 51 117 114 243 179 443 213 658 23 148 15 401 -16
520 -75 286 -237 499 -522 687 -350 231 -706 332 -1074 303z m476 -269 c88
-14 100 -19 100 -37 0 -13 -9 -14 -52 -9 -206 26 -401 17 -558 -25 -223 -60
-395 -232 -446 -445 -13 -56 -15 -95 -9 -204 11 -213 12 -204 -6 -208 -22 -4
-27 23 -35 203 -8 175 2 232 65 360 97 197 274 315 539 360 95 16 314 18 402
5z m-48 -511 c86 -18 158 -58 224 -123 170 -171 176 -432 14 -608 -138 -151
-351 -190 -532 -97 -58 30 -150 119 -181 177 -55 101 -70 218 -42 325 22 86
51 135 119 202 112 112 251 155 398 124z m-879 -672 c3 -24 9 -92 13 -150 6
-95 5 -107 -9 -107 -9 0 -19 10 -21 23 -11 50 -27 257 -21 267 15 24 33 8 38
-33z m-968 -967 c0 -13 -64 -16 -500 -20 -478 -5 -502 -6 -551 -26 -108 -44
-173 -105 -230 -214 -29 -55 -29 -56 -34 -275 -5 -199 -7 -220 -22 -223 -17
-3 -18 12 -18 207 0 195 2 215 23 274 52 143 160 241 310 282 79 21 1022 17
1022 -5z m488 6 c3 -8 3 -17 0 -20 -11 -10 -271 -7 -278 4 -15 24 12 30 140
30 105 0 134 -3 138 -14z m-13153 -11305 c0 -23 -142 -116 -164 -108 -28 11
-4 42 62 84 75 46 102 53 102 24z m-372 -213 c2 -12 -12 -25 -47 -43 -28 -14
-51 -27 -51 -30 0 -2 149 -4 332 -5 182 0 333 -2 335 -4 2 -1 3 -293 3 -647
l0 -644 -455 -3 -455 -2 0 650 0 650 69 0 c39 0 73 5 76 10 10 16 158 90 175
87 8 -1 16 -10 18 -19z m-1710 -255 c2 -179 3 -182 25 -185 29 -4 29 -32 0
-36 l-23 -3 -2 -452 -3 -452 -437 -3 -438 -2 -2 472 -3 473 -68 11 c-75 12
-82 16 -73 40 5 14 15 15 63 9 31 -4 62 -9 70 -12 10 -4 13 26 13 161 l0 166
438 -2 437 -3 3 -182z m1162 116 c0 -67 -3 -66 79 -33 47 20 71 18 71 -5 0
-18 -38 -38 -127 -65 l-23 -7 0 -565 0 -564 -475 0 -475 0 0 650 0 650 475 0
475 0 0 -61z m2210 -589 l0 -650 -435 0 -435 0 0 650 0 650 435 0 435 0 0
-650z m1190 0 l0 -650 -490 0 -490 0 0 650 0 650 490 0 490 0 0 -650z m1080 0
l0 -650 -435 0 -435 0 0 650 0 650 435 0 435 0 0 -650z m950 0 l0 -650 -370 0
-370 0 0 650 0 650 370 0 370 0 0 -650z m19145 -925 c28 -14 77 -44 109 -67
33 -23 96 -57 140 -75 52 -21 80 -38 78 -46 -4 -26 -264 -752 -271 -759 -3 -4
-29 0 -56 8 -50 16 -133 15 -380 -2 -70 -5 -84 -3 -113 16 -43 27 -75 98 -75
165 1 48 166 654 192 704 23 42 138 79 251 80 60 1 85 -4 125 -24z"/>
<path d="M22392 26300 c-35 -15 -262 -373 -470 -740 -373 -661 -647 -1302
-780 -1825 -88 -345 -116 -568 -109 -855 7 -285 43 -454 142 -656 197 -406
595 -660 1187 -759 83 -13 120 -14 240 -5 579 43 919 280 1067 743 57 178 66
254 66 542 0 268 -8 347 -56 610 -87 475 -295 1097 -586 1755 -163 368 -543
1121 -592 1173 -21 21 -77 30 -109 17z"/>
<path d="M10230 16374 c0 -12 -221 -1569 -226 -1597 l-6 -28 108 3 109 3 112
790 c62 435 112 800 113 813 0 21 -3 22 -105 22 -58 0 -105 -3 -105 -6z"/>
<path d="M13292 13744 l3 -2636 94 -4 c51 -2 97 -7 102 -10 5 -3 9 1128 9
2640 l0 2646 -105 0 -105 0 2 -2636z"/>
<path d="M44316 15798 c-513 -759 -1409 -2075 -1420 -2086 -10 -10 -23 -8 -67
12 -106 48 -261 58 -416 25 -34 -7 -66 -10 -70 -5 -4 4 -10 38 -14 76 -9 106
-61 168 -208 247 -35 19 -57 38 -62 54 -4 13 -26 87 -49 164 -53 181 -91 270
-154 364 -215 322 -584 423 -933 255 -92 -44 -171 -116 -207 -189 -51 -104
-46 -261 12 -388 l27 -58 80 55 c87 60 101 63 200 45 146 -27 258 -115 306
-241 22 -57 24 -78 24 -213 -1 -125 -4 -163 -23 -229 -13 -43 -21 -80 -20 -81
30 -23 43 -21 88 14 27 20 67 60 90 90 53 67 109 95 163 80 46 -13 102 -67
110 -107 14 -70 -43 -161 -150 -242 -49 -37 -67 -58 -94 -115 -32 -66 -39 -74
-129 -134 -52 -35 -96 -67 -98 -70 -1 -4 64 -146 146 -316 141 -295 149 -310
179 -316 17 -3 92 -52 166 -107 465 -349 901 -785 1245 -1244 53 -71 102 -128
108 -128 24 0 179 52 229 77 152 76 225 195 225 363 0 133 -53 252 -144 323
-23 17 -44 36 -48 41 -15 22 14 44 77 59 194 48 331 163 387 325 30 86 32 271
5 372 -60 224 -209 363 -453 423 l-90 22 685 858 c651 816 686 857 702 840 9
-10 316 -407 681 -883 556 -724 2656 -3457 3118 -4056 l135 -176 20 27 c11 14
63 93 116 174 l97 148 -455 634 c-251 349 -663 924 -917 1279 -480 669 -727
1013 -1951 2720 -400 558 -803 1119 -894 1247 -91 128 -169 233 -172 233 -3 0
-85 -118 -183 -262z"/>
<path d="M7431 15393 c-8 -15 -12 -16 -35 -4 -23 13 -27 12 -50 -17 -59 -69
-166 -118 -334 -153 -331 -67 -514 -197 -538 -379 l-6 -48 -53 2 c-47 1 -58
-3 -84 -29 -86 -81 -52 -230 85 -375 l67 -70 -27 -25 c-48 -45 -25 -91 71
-142 76 -41 162 -65 215 -61 43 3 43 3 46 46 3 40 0 46 -51 96 -63 62 -97 126
-97 182 0 73 72 111 134 71 14 -10 40 -48 58 -87 23 -49 38 -70 52 -70 13 0
16 4 11 18 -53 127 -69 252 -37 291 12 16 73 39 207 81 307 95 459 169 513
249 87 131 55 320 -72 419 -34 26 -61 28 -75 5z"/>
<path d="M9970 14535 c0 -9 -300 -2129 -306 -2162 l-6 -33 106 0 c101 0 106 1
111 23 7 30 305 2143 305 2162 0 12 -18 15 -105 15 -58 0 -105 -2 -105 -5z"/>
<path d="M32330 13883 c0 -5 123 -579 274 -1278 l273 -1270 84 -9 c117 -13
357 6 483 38 101 26 222 80 238 106 6 10 -70 384 -227 1119 l-235 1103 45 85
c49 92 55 116 28 111 -11 -2 -37 -41 -66 -98 l-49 -95 236 -1099 c129 -604
233 -1103 229 -1109 -11 -17 -146 -74 -218 -91 -117 -27 -203 -36 -362 -36
-136 0 -152 2 -157 18 -3 9 -116 535 -251 1167 -135 633 -255 1194 -267 1248
-17 80 -25 97 -40 97 -10 0 -18 -3 -18 -7z"/>
<path d="M34611 13598 c-5 -13 -43 -185 -86 -383 -42 -198 -87 -407 -100 -465
-17 -71 -21 -108 -14 -115 14 -14 35 16 44 63 3 20 49 230 101 467 52 236 92
435 89 442 -7 20 -25 15 -34 -9z"/>
<path d="M5888 13450 c-123 -15 -115 -10 -300 -198 -556 -565 -961 -1216
-1140 -1832 -18 -60 -30 -111 -27 -113 14 -14 551 -348 554 -345 1 2 40 64 85
138 169 277 450 653 696 932 l31 35 144 -22 c79 -13 281 -44 449 -69 168 -26
553 -85 857 -131 304 -47 556 -85 560 -85 13 0 82 183 112 295 24 94 26 113
25 320 -1 483 -82 782 -228 845 -23 10 -112 35 -200 55 -149 36 -160 37 -185
22 -65 -38 -239 -30 -496 24 -218 45 -215 44 -215 83 0 32 -2 34 -42 40 -74
10 -610 15 -680 6z"/>
<path d="M34416 12415 c23 -414 144 -2736 144 -2766 0 -38 2 -41 85 -95 47
-30 85 -57 85 -60 0 -2 -314 -4 -697 -4 l-698 0 -68 313 c-38 171 -73 333 -78
359 l-10 46 -72 13 c-40 6 -497 85 -1017 174 -643 110 -947 158 -951 151 -9
-16 -55 -270 -73 -401 -77 -561 -88 -1358 -31 -2245 55 -840 186 -1931 356
-2953 32 -196 59 -363 59 -371 0 -15 40 -13 -970 -61 -3690 -175 -6446 -255
-8825 -255 -1508 0 -2399 24 -3220 85 -507 39 -566 50 -667 126 -64 47 -102
95 -138 173 l-27 58 -23 -37 c-92 -149 -339 -444 -562 -671 -92 -94 -168 -176
-168 -182 0 -18 153 -143 251 -204 151 -95 317 -150 507 -167 59 -6 557 -15
1107 -22 550 -6 1003 -13 1008 -16 4 -2 7 -11 7 -20 0 -14 -62 -15 -662 -8
-1143 12 -1514 21 -1593 39 -232 52 -428 153 -582 299 -40 38 -76 67 -81 65
-5 -1 -74 -60 -153 -130 -79 -70 -153 -134 -164 -142 -13 -8 -90 -22 -193 -33
-95 -11 -175 -23 -178 -26 -12 -11 106 -146 188 -216 135 -115 285 -194 466
-243 65 -18 113 -22 302 -25 189 -3 13563 234 14212 252 l217 6 21 -41 c15
-30 33 -47 63 -61 39 -17 69 -19 380 -19 296 0 343 2 374 17 36 17 73 65 73
95 0 10 10 20 23 22 12 2 312 9 666 15 354 5 648 14 652 18 16 16 573 1442
566 1449 -2 3 -116 -2 -253 -11 -137 -8 -575 -33 -974 -55 -399 -22 -777 -42
-842 -46 l-116 -6 -9 68 c-13 109 -10 1436 5 1709 17 326 41 737 47 810 63
754 94 1080 146 1515 16 140 31 259 32 263 2 8 307 -619 1508 -3099 277 -573
507 -1037 511 -1030 14 24 349 882 350 896 1 16 -887 2732 -903 2763 -9 16
-40 17 -440 17 -542 0 -491 -19 -624 230 -42 80 -79 159 -82 176 -7 45 21 97
66 122 l39 22 1733 0 c977 0 1740 4 1748 9 9 6 11 18 7 35 l-6 26 -1483 2
-1482 3 0 140 0 140 1431 3 1431 2 -13 -52 c-8 -29 -14 -72 -14 -95 l0 -43
195 0 195 0 0 800 0 800 -22 0 c-13 0 -134 -12 -270 -27 -136 -14 -250 -24
-253 -21 -3 3 -19 268 -35 589 -17 321 -31 591 -33 599 -1 8 -62 -101 -136
-242 -74 -143 -154 -282 -180 -314 -154 -192 -438 -256 -663 -151 -67 31 -298
181 -298 193 0 9 -128 600 -181 834 -48 213 -48 214 -43 125z m-2346 -8645
c-9 -16 -21 -20 -69 -20 -32 0 -95 -10 -139 -23 -90 -26 -117 -22 -133 20 -14
38 -98 387 -94 391 2 2 102 11 222 20 l218 17 3 -193 c1 -121 -1 -200 -8 -212z"/>
<path d="M9626 12098 c-3 -18 -71 -499 -151 -1068 -80 -569 -148 -1048 -151
-1063 l-6 -28 108 3 108 3 153 1075 c84 591 152 1083 153 1093 0 15 -11 17
-104 17 l-104 0 -6 -32z"/>
<path d="M36415 11681 c-78 -36 -118 -96 -119 -176 -1 -41 20 -103 116 -345
64 -162 267 -675 451 -1139 348 -879 355 -896 431 -942 30 -18 93 -19 2443
-19 l2412 0 20 29 c27 38 28 105 1 149 -39 64 -2 62 -948 62 l-858 0 -177 375
-177 375 0 390 0 390 -37 0 c-21 0 -85 -7 -143 -15 -58 -8 -121 -14 -140 -15
l-35 0 -160 342 c-145 310 -165 348 -217 403 -33 35 -83 75 -116 93 -122 65
-49 62 -1442 62 -1211 0 -1267 -1 -1305 -19z m1619 -985 c54 -22 115 -91 154
-174 36 -74 37 -81 37 -187 0 -88 -4 -118 -19 -149 -50 -99 -177 -101 -264 -2
-76 87 -112 187 -112 311 0 167 85 251 204 201z"/>
<path d="M43380 10816 c-61 -7 -94 -15 -93 -23 1 -6 28 -53 59 -105 31 -51 94
-163 140 -248 l84 -155 0 273 0 272 -47 -1 c-27 -1 -91 -7 -143 -13z"/>
<path d="M46688 10797 l-268 -30 0 -769 0 -768 315 0 315 0 0 800 0 800 -47
-1 c-27 -1 -168 -15 -315 -32z"/>
<path d="M42940 9758 c0 -95 16 -162 36 -154 7 3 30 10 53 17 23 7 41 17 41
22 0 11 -120 207 -127 207 -1 0 -3 -41 -3 -92z"/>
<path d="M9290 9726 c0 -2 -11 -80 -24 -173 -13 -92 -41 -291 -62 -440 l-39
-273 -83 0 c-121 0 -171 -28 -207 -114 -30 -72 1 -165 67 -206 25 -15 51 -20
104 -20 l71 0 -8 -52 c-5 -29 -7 -53 -5 -55 2 -2 13 21 26 52 l22 55 1649 0
c1699 0 1675 -1 1640 35 -24 25 -61 166 -61 234 l0 71 -1541 0 c-1229 0 -1540
3 -1536 13 3 6 30 71 60 142 l55 130 41 290 c23 160 41 296 41 303 0 9 -28 12
-105 12 -58 0 -105 -2 -105 -4z"/>
<path d="M7622 9078 c-66 -118 -201 -387 -222 -443 -29 -75 -68 -115 -113
-115 -18 0 -194 47 -392 104 -198 57 -643 186 -990 286 l-629 182 -91 -31
c-49 -16 -104 -33 -122 -36 -17 -3 -34 -12 -36 -18 -152 -366 -230 -577 -368
-987 -284 -842 -629 -2056 -915 -3212 l-48 -197 20 -28 c12 -15 32 -33 45 -40
54 -26 301 -61 325 -45 7 4 46 110 88 235 103 310 382 1006 596 1487 21 47 82
184 135 305 168 381 284 636 582 1285 249 539 286 613 320 633 17 9 44 17 60
17 79 0 1589 -324 1623 -348 14 -10 33 -34 42 -53 17 -33 16 -38 -37 -274 -74
-328 -89 -396 -200 -900 -68 -308 -94 -444 -88 -455 29 -46 137 -95 241 -110
49 -6 178 3 189 14 3 3 224 465 278 581 410 883 645 1513 649 1737 1 68 -2 79
-23 102 -33 35 -221 130 -406 204 -154 62 -458 172 -474 172 -5 0 -23 -24 -39
-52z"/>
<path d="M34828 8503 l-207 -3 5 -68 c3 -37 16 -270 29 -518 l24 -451 183
-466 c101 -256 186 -463 189 -459 3 4 22 48 41 97 26 66 702 1778 735 1863 5
12 -354 14 -999 5z"/>
<path d="M36067 8503 c-3 -4 -25 -60 -50 -123 -25 -63 -225 -573 -446 -1133
-221 -559 -401 -1021 -401 -1026 0 -11 45 -126 604 -1545 234 -594 428 -1081
430 -1083 9 -9 92 18 104 34 7 10 12 33 10 52 -2 29 -15 45 -73 96 -38 33 -80
68 -93 77 l-23 16 44 93 c88 184 117 324 117 562 0 116 -167 3537 -192 3936
-3 41 -19 64 -31 44z"/>
<path d="M9142 7928 c-84 -198 -157 -382 -162 -410 -6 -28 -19 -121 -30 -207
-12 -86 -24 -173 -27 -195 l-6 -38 48 51 c27 29 82 77 122 107 40 30 73 60 73
67 0 7 32 230 70 496 38 267 69 486 67 487 -1 1 -71 -160 -155 -358z"/>
<path d="M37410 8218 c0 -47 -100 -3365 -105 -3480 l-6 -148 285 0 285 0 26
88 c219 729 571 1745 804 2319 l90 223 -34 502 c-19 277 -35 504 -35 506 0 1
-295 2 -655 2 -496 0 -655 -3 -655 -12z"/>
<path d="M44429 8228 c0 -2 -9 -248 -18 -548 l-18 -545 115 -295 c63 -162 118
-298 121 -302 4 -5 597 1483 667 1675 6 16 -19 17 -430 17 -240 0 -436 -1
-437 -2z"/>
<path d="M45148 7225 l-396 -1005 322 -815 321 -815 294 0 293 0 -6 68 c-7 72
-236 3527 -236 3555 0 15 -13 17 -98 17 l-98 0 -396 -1005z"/>
<path d="M13290 7708 c0 -37 5 -49 31 -74 17 -16 64 -69 105 -117 l74 -88 0
95 0 95 -90 61 c-122 82 -120 81 -120 28z"/>
<path d="M43220 7344 c-157 -22 -606 -34 -1567 -41 -860 -6 -913 -5 -938 11
-27 18 -27 18 -65 -19 -22 -21 -49 -61 -62 -89 -21 -48 -23 -64 -23 -241 0
-177 2 -193 23 -240 30 -65 85 -122 147 -151 l50 -24 533 0 532 0 0 -1290 0
-1290 -459 0 -458 0 -33 -23 c-45 -30 -69 -65 -77 -110 l-6 -37 1168 0 1168 0
-6 36 c-8 47 -51 102 -93 120 -27 11 -121 14 -484 14 l-450 0 0 1290 0 1290
573 0 c637 0 627 -1 706 67 23 19 54 58 69 87 26 49 27 57 30 237 4 204 -2
239 -48 312 -25 40 -111 110 -129 106 -4 -1 -49 -8 -101 -15z"/>
<path d="M8853 6628 c-18 -123 -71 -495 -117 -828 -47 -333 -122 -861 -166
-1174 -44 -312 -80 -590 -80 -616 0 -42 4 -52 31 -74 52 -44 145 -26 163 32 3
9 53 352 111 762 58 410 133 934 166 1165 32 231 65 465 73 519 l14 99 -70
151 c-38 83 -72 159 -75 169 -3 9 -8 17 -12 17 -3 0 -21 -100 -38 -222z"/>
<path d="M34720 6714 c-1 -65 45 -884 49 -884 4 0 40 88 82 195 l77 195 -100
253 c-55 138 -101 254 -104 256 -2 2 -4 -4 -4 -15z"/>
<path d="M44376 6503 c-7 -51 -20 -659 -13 -653 3 3 37 87 77 187 l71 183 -61
157 c-34 87 -63 159 -65 161 -2 2 -6 -14 -9 -35z"/>
<path d="M7158 6186 c-101 -129 -195 -329 -184 -390 7 -37 47 -78 91 -94 17
-6 161 -61 320 -122 318 -122 597 -220 718 -251 84 -21 117 -15 117 21 0 67
-474 593 -684 759 -78 62 -79 62 -100 43 -33 -31 -62 -35 -124 -17 -67 20 -89
37 -100 79 l-8 31 -46 -59z"/>
<path d="M34943 5652 c-56 -141 -172 -435 -257 -652 -86 -217 -208 -525 -271
-685 -302 -765 -369 -935 -391 -994 l-24 -63 88 6 c48 3 299 8 557 11 511 7
617 14 764 51 118 30 292 113 392 188 66 50 79 56 121 56 27 0 48 3 48 6 0 3
-156 400 -346 882 -469 1189 -567 1436 -573 1444 -3 4 -52 -109 -108 -250z
m120 -1202 c43 -151 47 -174 37 -209 -23 -88 -103 -135 -232 -136 -84 0 -105
17 -149 124 -17 42 -44 106 -60 144 -17 37 -27 71 -24 76 3 5 20 13 38 17 45
9 190 74 262 117 33 19 65 36 70 36 6 1 32 -75 58 -169z"/>
<path d="M44622 5890 c-5 -14 -72 -182 -148 -375 l-139 -350 -6 -190 c-4 -104
-8 -234 -8 -287 l-1 -98 415 0 c228 0 415 2 415 5 0 3 -113 292 -251 642 -138
351 -255 647 -259 658 -8 19 -8 19 -18 -5z"/>
<path d="M38801 5312 c-109 -142 -436 -564 -517 -664 l-46 -58 361 0 361 0 0
24 c0 26 -48 776 -53 813 -1 18 -25 -8 -106 -115z"/>
<path d="M40575 5048 c-3 -13 -19 -95 -36 -183 -74 -390 -165 -689 -240 -796
-50 -71 -208 -97 -385 -64 l-96 19 -81 -41 c-92 -46 -200 -122 -217 -152 -14
-26 13 -45 95 -65 232 -58 603 -42 781 34 40 18 44 25 161 257 194 388 307
696 320 874 5 73 5 76 -21 97 -34 27 -108 42 -201 42 -69 0 -75 -2 -80 -22z"/>
<path d="M3681 4414 c-36 -30 -70 -128 -95 -273 -30 -174 -18 -233 51 -259 89
-33 1179 -82 1247 -56 9 4 16 18 16 35 0 25 -14 38 -125 114 -237 163 -573
355 -718 409 l-68 25 -9 -23 c-17 -45 -57 -66 -127 -66 -95 0 -123 18 -123 83
0 44 -8 46 -49 11z"/>
<path d="M38145 4108 c-224 -83 -636 -157 -976 -175 -125 -6 -127 -6 -139 17
-10 19 -9 27 10 52 l21 29 -68 -35 c-156 -78 -362 -239 -401 -313 -11 -20 -9
-22 51 -32 91 -16 413 -13 617 4 218 20 573 64 837 107 l202 32 16 38 c21 54
19 153 -5 206 -26 57 -58 102 -73 101 -7 0 -48 -14 -92 -31z"/>
</g>
</svg>
